<svg width="24" height="24" viewBox="0 0 24 24" fill="none" xmlns="http://www.w3.org/2000/svg">
<path d="M16.5 12C16.5 10.23 15.48 8.71 14 7.97V16.02C15.48 15.29 16.5 13.77 16.5 12ZM19.07 4.93L17.66 6.34C19.11 7.78 20 9.79 20 12C20 14.21 19.11 16.22 17.66 17.66L19.07 19.07C20.88 17.26 22 14.76 22 12C22 9.24 20.88 6.74 19.07 4.93ZM14 3.23V5.29C16.89 6.15 19 8.83 19 12C19 15.17 16.89 17.85 14 18.71V20.77C18 19.86 21 16.28 21 12C21 7.72 18 4.14 14 3.23ZM3 9V15H7L12 20V4L7 9H3Z" fill="white"/>
</svg> 